REM DIRINDEX 1\2\3,1\2\4,1\2\5,1\2\6
REM DIRNAME folder01,folder02,folder03,folder04,folder05,folder06
TITLE ""
FILE "176 176.mp3" MP3
  TRACK 01 AUDIO
    TITLE "0:"
    INDEX 01 00:00:00
  TRACK 02 AUDIO
    TITLE "3:cjc157_6385"
    INDEX 01 00:00:11
  TRACK 03 AUDIO
    TITLE "0:"
    INDEX 01 00:01:32
  TRACK 04 AUDIO
    TITLE "4:cjc157_6386"
    INDEX 01 00:02:04
  TRACK 05 AUDIO
    TITLE "0:"
    INDEX 01 00:03:25
  TRACK 06 AUDIO
    TITLE "5:cjc157_6387"
    INDEX 01 00:03:72
  TRACK 07 AUDIO
    TITLE "0:"
    INDEX 01 00:08:46
  TRACK 08 AUDIO
    TITLE "3:cjc157_6388"
    INDEX 01 00:09:20
  TRACK 09 AUDIO
    TITLE "0:"
    INDEX 01 00:10:39
  TRACK 10 AUDIO
    TITLE "4:cjc157_6389"
    INDEX 01 00:11:09
  TRACK 11 AUDIO
    TITLE "0:"
    INDEX 01 00:12:48
  TRACK 12 AUDIO
    TITLE "5:cjc157_6390"
    INDEX 01 00:13:18
  TRACK 13 AUDIO
    TITLE "0:"
    INDEX 01 00:15:62
  TRACK 14 AUDIO
    TITLE "3:cjc157_6391"
    INDEX 01 00:16:34
  TRACK 15 AUDIO
    TITLE "0:"
    INDEX 01 00:17:63
  TRACK 16 AUDIO
    TITLE "4:cjc157_6392"
    INDEX 01 00:18:33
  TRACK 17 AUDIO
    TITLE "0:"
    INDEX 01 00:19:42
  TRACK 18 AUDIO
    TITLE "5:cjc157_6393"
    INDEX 01 00:20:36
  TRACK 19 AUDIO
    TITLE "0:"
    INDEX 01 00:23:55
  TRACK 20 AUDIO
    TITLE "5:cjc157_6394"
    INDEX 01 00:24:24
  TRACK 21 AUDIO
    TITLE "0:"
    INDEX 01 00:26:56
  TRACK 22 AUDIO
    TITLE "3:cjc157_6395"
    INDEX 01 00:27:28
  TRACK 23 AUDIO
    TITLE "0:"
    INDEX 01 00:28:55
  TRACK 24 AUDIO
    TITLE "4:cjc157_6396"
    INDEX 01 00:29:29
  TRACK 25 AUDIO
    TITLE "0:"
    INDEX 01 00:30:57
  TRACK 26 AUDIO
    TITLE "5:cjc157_6397"
    INDEX 01 00:31:29
  TRACK 27 AUDIO
    TITLE "0:"
    INDEX 01 00:34:61
  TRACK 28 AUDIO
    TITLE "3:cjc157_6398"
    INDEX 01 00:35:29
  TRACK 29 AUDIO
    TITLE "0:"
    INDEX 01 00:37:30
  TRACK 30 AUDIO
    TITLE "4:cjc157_6399"
    INDEX 01 00:38:02
  TRACK 31 AUDIO
    TITLE "0:"
    INDEX 01 00:40:05
  TRACK 32 AUDIO
    TITLE "5:cjc157_6400"
    INDEX 01 00:40:62
  TRACK 33 AUDIO
    TITLE "0:"
    INDEX 01 00:45:10
  TRACK 34 AUDIO
    TITLE "5:cjc157_6401"
    INDEX 01 00:45:61
  TRACK 35 AUDIO
    TITLE "0:"
    INDEX 01 00:48:67
  TRACK 36 AUDIO
    TITLE "3:cjc157_6402"
    INDEX 01 00:49:37
  TRACK 37 AUDIO
    TITLE "0:"
    INDEX 01 00:51:32
  TRACK 38 AUDIO
    TITLE "4:cjc157_6403"
    INDEX 01 00:52:02
  TRACK 39 AUDIO
    TITLE "0:"
    INDEX 01 00:54:25
  TRACK 40 AUDIO
    TITLE "5:cjc157_6404"
    INDEX 01 00:54:70
  TRACK 41 AUDIO
    TITLE "0:"
    INDEX 01 00:58:54
  TRACK 42 AUDIO
    TITLE "3:cjc157_6405"
    INDEX 01 00:59:26
  TRACK 43 AUDIO
    TITLE "0:"
    INDEX 01 01:00:64
  TRACK 44 AUDIO
    TITLE "4:cjc157_6406"
    INDEX 01 01:01:34
  TRACK 45 AUDIO
    TITLE "0:"
    INDEX 01 01:02:71
  TRACK 46 AUDIO
    TITLE "5:cjc157_6407"
    INDEX 01 01:03:43
  TRACK 47 AUDIO
    TITLE "0:"
    INDEX 01 01:07:31
  TRACK 48 AUDIO
    TITLE "5:cjc157_6408"
    INDEX 01 01:08:03
  TRACK 49 AUDIO
    TITLE "0:"
    INDEX 01 01:12:17
  TRACK 50 AUDIO
    TITLE "3:cjc157_6409"
    INDEX 01 01:12:60
  TRACK 51 AUDIO
    TITLE "0:"
    INDEX 01 01:14:29
  TRACK 52 AUDIO
    TITLE "4:cjc157_6410"
    INDEX 01 01:14:74
  TRACK 53 AUDIO
    TITLE "0:"
    INDEX 01 01:16:30
  TRACK 54 AUDIO
    TITLE "5:cjc157_6411"
    INDEX 01 01:17:04
  TRACK 55 AUDIO
    TITLE "0:"
    INDEX 01 01:19:70
  TRACK 56 AUDIO
    TITLE "5:cjc157_6412"
    INDEX 01 01:20:40
  TRACK 57 AUDIO
    TITLE "0:"
    INDEX 01 01:24:39
  TRACK 58 AUDIO
    TITLE "3:cjc157_6413"
    INDEX 01 01:25:13
  TRACK 59 AUDIO
    TITLE "0:"
    INDEX 01 01:26:66
  TRACK 60 AUDIO
    TITLE "4:cjc157_6414"
    INDEX 01 01:27:36
  TRACK 61 AUDIO
    TITLE "0:"
    INDEX 01 01:31:34
  TRACK 62 AUDIO
    TITLE "5:cjc157_6415"
    INDEX 01 01:32:04
  TRACK 63 AUDIO
    TITLE "0:"
    INDEX 01 01:34:55
  TRACK 64 AUDIO
    TITLE "3:cjc157_6416"
    INDEX 01 01:35:29
  TRACK 65 AUDIO
    TITLE "0:"
    INDEX 01 01:36:35
  TRACK 66 AUDIO
    TITLE "4:cjc157_6417"
    INDEX 01 01:37:05
  TRACK 67 AUDIO
    TITLE "0:"
    INDEX 01 01:38:53
  TRACK 68 AUDIO
    TITLE "5:cjc157_6418"
    INDEX 01 01:39:29
  TRACK 69 AUDIO
    TITLE "0:"
    INDEX 01 01:42:12
